<svg width="642" height="280" xmlns="http://www.w3.org/2000/svg">

 <g>
  <title>background</title>
  <rect fill="none" id="canvas_background" height="282" width="644" y="-1" x="-1"/>
 </g>
 <g>
  <title>Layer 1</title>
  <g id="svg_1" fill-rule="evenodd" fill="none">
   <g stroke="null" id="svg_2" fill="#47848F">
    <g stroke="null" id="svg_3">
     <path stroke="null" id="svg_4" d="m468.457152,62.530234c-36.219533,-6.360883 -64.85687,0.296633 -76.27036,19.358438c-8.517002,14.22434 -6.082485,33.083448 5.904174,53.242684c1.020247,1.715855 3.289879,2.309317 5.06935,1.325573c1.77949,-0.983763 2.394981,-3.172231 1.374734,-4.888086c-10.797739,-18.159659 -12.898809,-34.43579 -5.915353,-46.098945c9.481223,-15.834727 35.025246,-21.773115 68.506454,-15.893137c2.018006,0.354398 3.951888,-0.93572 4.31943,-2.881561c0.367542,-1.945841 -0.970423,-3.810567 -2.988429,-4.164965l0,0zm-51.530817,97.104527c14.645151,15.518416 33.671664,30.073912 55.370318,42.153635c52.539884,29.249155 108.472285,37.067095 136.038103,18.94332c1.694736,-1.114245 2.131804,-3.34225 0.976236,-4.976381c-1.155568,-1.634113 -3.466185,-2.05557 -5.16092,-0.941325c-24.671075,16.220569 -77.802811,8.794092 -128.139377,-19.228475c-21.050127,-11.7187 -39.474036,-25.813203 -53.590457,-40.771336c-1.380528,-1.462859 -3.729529,-1.569597 -5.246622,-0.238438c-1.517093,1.331159 -1.627809,3.596141 -0.247281,5.059l0,0z"/>
     <path stroke="null" id="svg_5" d="m599.541299,155.278129c23.715675,-27.014489 31.996353,-54.184994 20.606373,-73.207531c-8.380957,-13.997165 -26.098567,-21.387077 -49.644975,-21.682349c-2.051042,-0.025713 -3.735341,1.556669 -3.762027,3.534365c-0.026667,1.977678 1.614401,3.601764 3.665424,3.627495c21.177035,0.265548 36.441113,6.632107 43.308672,18.101715c9.46074,15.800491 2.076205,40.030523 -19.843026,64.998682c-1.325263,1.50963 -1.130443,3.769329 0.435156,5.047218c1.565617,1.277871 3.909121,1.090018 5.234402,-0.419594l0,0zm-60.949012,-91.555383c-21.442868,4.42994 -44.266876,13.091348 -66.186701,25.294211c-54.237498,30.194223 -89.617844,74.716695 -84.704112,106.999524c0.297866,1.956889 2.184525,3.310431 4.213988,3.023234c2.029482,-0.287214 3.433222,-2.106405 3.135356,-4.063294c-4.362866,-28.66375 29.174239,-70.866699 81.068808,-99.756603c21.263963,-11.83774 43.363696,-20.224307 64.028843,-24.493575c2.005694,-0.414366 3.283268,-2.318055 2.853535,-4.252024c-0.429733,-1.933951 -2.404025,-3.165839 -4.409718,-2.751473l0,0z"/>
     <path stroke="null" id="svg_6" d="m450.725484,218.397958c12.399661,33.386133 32.685493,53.941757 55.496205,53.941757c16.636286,0 32.028108,-10.934895 44.03057,-30.186613c1.05683,-1.695137 0.488415,-3.895406 -1.269589,-4.914444c-1.757986,-1.019038 -4.039855,-0.470949 -5.096686,1.224188c-10.786597,17.30149 -24.036123,26.714418 -37.664295,26.714418c-18.948295,0 -37.041469,-18.333814 -48.503037,-49.194144c-0.691573,-1.862058 -2.817676,-2.830959 -4.748792,-2.164134c-1.931097,0.666842 -2.93595,2.716914 -2.244376,4.578972l0,0zm113.261801,-6.530704c6.41907,-19.779357 9.866629,-42.59665 9.866629,-66.373622c0,-59.330301 -21.535459,-110.475246 -52.209855,-123.60853c-1.874699,-0.80266 -4.069271,0.012051 -4.90168,1.819728c-0.832428,1.807659 0.012498,3.923751 1.887197,4.726411c27.357868,11.71331 47.796255,60.252825 47.796255,117.062391c0,23.067531 -3.338682,45.164317 -9.52763,64.234574c-0.612594,1.887592 0.477756,3.896642 2.435352,4.487311c1.957597,0.590687 4.041155,-0.460671 4.653731,-2.348263l0,0z"/>
     <path stroke="null" id="svg_7" d="m633.936997,208.358709c0,-9.46636 -7.958614,-17.140353 -17.776032,-17.140353c-9.817436,0 -17.776051,7.673993 -17.776051,17.140353c0,9.46636 7.958614,17.14037 17.776051,17.14037c9.817418,0 17.776032,-7.67401 17.776032,-17.14037l0,0zm-7.428082,0c0,5.510646 -4.632932,9.97792 -10.34795,9.97792c-5.715018,0 -10.347969,-4.467274 -10.347969,-9.97792c0,-5.510646 4.632951,-9.977902 10.347969,-9.977902c5.715018,0 10.34795,4.467256 10.34795,9.977902l0,0z"/>
     <path stroke="null" id="svg_8" d="m396.026757,225.499079c9.817436,0 17.776051,-7.67401 17.776051,-17.14037c0,-9.46636 -7.958614,-17.140353 -17.776051,-17.140353c-9.817436,0 -17.776032,7.673993 -17.776032,17.140353c0,9.46636 7.958596,17.14037 17.776032,17.14037l0,0zm0,-7.16245c-5.715018,0 -10.34795,-4.467274 -10.34795,-9.97792c0,-5.510646 4.632932,-9.977902 10.34795,-9.977902c5.715018,0 10.347969,4.467256 10.347969,9.977902c0,5.510646 -4.632951,9.97792 -10.347969,9.97792l0,0z"/>
     <path stroke="null" id="svg_9" d="m506.221689,39.369126c9.817436,0 17.776051,-7.673993 17.776051,-17.140353c0,-9.46636 -7.958614,-17.14037 -17.776051,-17.14037c-9.817436,0 -17.776032,7.67401 -17.776032,17.14037c0,9.46636 7.958596,17.140353 17.776032,17.140353l0,0zm0,-7.16245c-5.715018,0 -10.34795,-4.467256 -10.34795,-9.977902c0,-5.510646 4.632932,-9.97792 10.34795,-9.97792c5.715018,0 10.347969,4.467274 10.347969,9.97792c0,5.510646 -4.632951,9.977902 -10.347969,9.977902l0,0z"/>
     <path stroke="null" id="svg_10" d="m508.936857,157.615094c-6.943121,1.446528 -13.783494,-2.808146 -15.286603,-9.502978c-1.497241,-6.694832 2.912291,-13.290571 9.855412,-14.739947c6.943103,-1.446528 13.783475,2.808146 15.286585,9.502978c1.500194,6.694832 -2.912291,13.290571 -9.855394,14.739947z"/>
    </g>
   </g>
  </g>
  <!-- Generator: Sketch 3.8.3 (29802) - http://www.bohemiancoding.com/sketch -->
  <desc transform="matrix(0.0095367431640625,0,0,0.0095367431640625,0,0) ">Created with Sketch.</desc>

  <g stroke="null" transform="rotate(-0.11890531331300735 129.99522399903898,137.49952697755012) " id="svg_25">
   <g transform="matrix(0.5679001881112277,0,0,0.5306327391288166,-28410.290368372705,-3792.674389715134) " fill-rule="evenodd" fill="none" id="svg_18">
    <g stroke="null" id="svg_19">
     <polygon stroke="null" points="50255.815894291736,7152.294945719186 50476.030738041736,7279.438012125436 50460.995581791736,7533.723168375436 50255.815894291736,7660.866234781686 50049.269019291736,7533.723168375436 50035.597144291736,7279.438012125436 " fill="#FB8C00" id="svg_23"/>
     <path stroke="null" fill="#EF6C00" id="svg_22" d="m50255.738984,7660.816287l0.08072,0.0497l205.1794,-127.14281l15.0384,-254.2856l-220.2178,-127.14281l-0.49468,0.28561l0.41396,0l0,508.23591z"/>
     <path stroke="null" fill="#FFFFFF" id="svg_21" d="m50255.819704,7206.580377l173.20509,100l-11.82796,200l-161.37713,100l-162.45239,-100l-10.75269,-200l173.20508,-100zm0,19.96605l155.91398,90.01697l-10.75269,180.03396l-145.16129,90.01697l-145.16129,-90.01697l-10.75268,-180.03396l155.91397,-90.01697z"/>
     <path stroke="null" fill="#FFFFFF" id="svg_20" d="m50368.692984,7409.062877c-3.16251,-1.6698 -6.85631,-1.73727 -10.11157,-0.5819l-9.73207,-5.1359l0,-40.7583l9.58027,-5.7684c1.18066,0.36263 2.4035,0.59877 3.6685,0.59877c2.29386,0 4.554,-0.62407 6.51896,-1.81317c2.89264,-1.7457 4.93351,-4.51183 5.75154,-7.78397c0.8096,-3.28056 0.3036,-6.6792 -1.4421,-9.57183c-3.45767,-5.7431 -11.60427,-7.78397 -17.36424,-4.30943c-3.1878,1.9228 -5.17806,5.04313 -5.83586,8.44176l-9.3104,5.60817l-33.73334,-20.23157l0,-11.16573c2.57217,-2.31917 4.21667,-5.63347 4.21667,-9.361c0,-6.97437 -5.67563,-12.65 -12.65,-12.65c-6.97436,0 -12.65,5.67563 -12.65,12.65c0,3.72753 1.6445,7.04183 4.21667,9.361l0,11.16573l-33.73333,20.24l-33.73334,-20.24l0,-11.16573c2.57217,-2.31917 4.21667,-5.63347 4.21667,-9.361c0,-6.97437 -5.67563,-12.65 -12.65,-12.65c-6.97437,0 -12.65,5.67563 -12.65,12.65c0,3.72753 1.6445,7.04183 4.21667,9.361l0,11.16573l-33.7249,20.23157l-9.31041,-5.60817c-0.6578,-3.39863 -2.64806,-6.5274 -5.83586,-8.44176c-5.75997,-3.48297 -13.89814,-1.43367 -17.36423,4.301c-1.75414,2.89263 -2.26014,6.2997 -1.45054,9.58026c0.81804,3.27214 2.8589,6.03827 5.75153,7.78397c1.9734,1.1891 4.2251,1.81317 6.51897,1.81317c1.265,0 2.48783,-0.23614 3.6685,-0.59877l9.58027,5.77683l0,40.74987l-9.72363,5.14433c-3.25527,-1.15536 -6.94907,-1.09633 -10.12,0.5819c-6.16477,3.2637 -8.52611,10.9296 -5.27084,17.09437c2.2011,4.15763 6.48524,6.73823 11.19103,6.73823c2.04931,0 4.08174,-0.506 5.90334,-1.4674c3.289,-1.73726 5.45636,-4.74796 6.2997,-8.096l9.8923,-5.22866l33.99477,20.3918l0,40.74143l-9.72364,5.14433c-3.2637,-1.15536 -6.9575,-1.0879 -10.12,0.5819c-6.16476,3.2637 -8.5261,10.9296 -5.27083,17.09437c2.2011,4.15763 6.48523,6.73823 11.19103,6.73823c2.0493,0 4.08173,-0.506 5.90333,-1.4674c3.28901,-1.73726 5.45637,-4.74796 6.2997,-8.096l9.8923,-5.22866l33.99477,20.3918l0,11.16573c-2.57216,2.31917 -4.21667,5.63347 -4.21667,9.361c0,6.97437 5.67564,12.65 12.65001,12.65c6.97436,0 12.65,-5.67563 12.65,-12.65c0,-3.72753 -1.6445,-7.04183 -4.21667,-9.361l0,-11.16573l33.99476,-20.3918l9.8923,5.22866c0.85177,3.35647 3.01071,6.35874 6.29971,8.10444c1.81316,0.95296 3.85403,1.45896 5.90333,1.45896c4.7058,0 8.98993,-2.5806 11.19103,-6.73823c3.2637,-6.16477 0.89393,-13.8391 -5.27083,-17.09437c-3.1625,-1.67823 -6.8563,-1.73726 -10.11157,-0.5819l-9.73207,-5.14433l0,-40.74143l33.99477,-20.3918l9.8923,5.22866c0.85177,3.35647 3.0107,6.35874 6.2997,8.10444c1.81317,0.95296 3.85403,1.45896 5.90333,1.45896c4.70581,0 8.98994,-2.5806 11.19104,-6.73823c3.2637,-6.16477 0.89393,-13.8391 -5.27083,-17.1028l0,0zm-78.87697,70.4858l-33.73333,20.24l-33.73334,-20.24l0,-41.04503l33.73334,-20.24l33.73333,20.24l0,41.04503l0,0zm42.16667,-75.9l-33.73334,20.24l-33.73333,-20.24l0,-41.04503l33.73333,-20.24l33.73334,20.24l0,41.04503l0,0z"/>
    </g>
   </g>
  </g>
  <text xml:space="preserve" text-anchor="start" font-family="Helvetica, Arial, sans-serif" font-size="171" id="svg_26" y="170" x="271.5" stroke-width="0" stroke="null" fill="#FB8C00">+</text>
 </g>
</svg>