<svg width="503" height="208" xmlns="http://www.w3.org/2000/svg">
 <g>
  <title>background</title>
  <rect x="-1" y="-1" width="505" height="210" id="canvas_background" fill="none"/>
 </g>

 <g>
  <title>Layer 1</title>
  <g stroke="null" fill="none" fill-rule="evenodd" id="svg_1">
   <g stroke="null" fill="#47848F" id="svg_2">
    <g stroke="null" id="svg_3">
     <path stroke="null" d="m378.408268,45.559415c-26.161945,-4.813807 -46.847153,0.224492 -55.091299,14.650143c-6.151965,10.764742 -4.393472,25.037001 4.264683,40.293176c0.736936,1.298527 2.376333,1.747647 3.661672,1.003169c1.285354,-0.744493 1.729932,-2.400691 0.992989,-3.699225c-7.79938,-13.742926 -9.317016,-26.060429 -4.272752,-34.886905c6.848437,-11.983458 25.29929,-16.477532 49.483303,-12.027662c1.457641,0.268204 2.854513,-0.708137 3.119993,-2.180716c0.26548,-1.472579 -0.70095,-2.883776 -2.158591,-3.15198l0,0zm-37.221534,73.487082c10.578433,11.74408 24.321585,22.759431 39.994866,31.901169c37.950401,22.135267 78.351267,28.051753 98.262499,14.335987c1.224131,-0.843246 1.539833,-2.529359 0.705147,-3.766041c-0.834687,-1.236675 -2.503677,-1.555621 -3.727815,-0.712383c-17.820308,12.275456 -56.198212,6.65522 -92.55712,-14.551792c-15.204838,-8.868516 -28.512722,-19.534997 -38.709238,-30.85506c-0.997179,-1.107068 -2.693899,-1.187847 -3.789717,-0.180447c-1.095826,1.0074 -1.175793,2.721499 -0.178622,3.828566l0,0z" id="svg_4"/>
     <path stroke="null" d="m473.092443,115.749472c17.130207,-20.444113 23.111474,-41.006293 14.88431,-55.402232c-6.053701,-10.592824 -18.851414,-16.185384 -35.859355,-16.408839c-1.481506,-0.019457 -2.698096,1.178062 -2.717374,2.674744c-0.019264,1.496675 1.166107,2.725759 2.647591,2.745231c15.296514,0.200964 26.322003,5.01907 31.282551,13.699071c6.833644,11.957546 1.499672,30.294434 -14.332937,49.18992c-0.957256,1.142463 -0.816535,2.852566 0.314323,3.819644c1.130865,0.967071 2.82362,0.824909 3.780891,-0.317539l0,0zm-44.024443,-69.287578c-15.488527,3.352504 -31.974674,9.907307 -47.80771,19.142234c-39.176612,22.85048 -64.732404,56.544339 -61.183138,80.975444c0.215156,1.480942 1.577921,2.505278 3.043832,2.287937c1.465926,-0.217363 2.47987,-1.594096 2.264721,-3.075037c-3.151371,-21.692246 21.073019,-53.630731 58.557296,-75.494124c15.359298,-8.958603 31.322286,-15.305419 46.249053,-18.536331c1.448742,-0.313581 2.371558,-1.754261 2.06115,-3.217858c-0.310401,-1.463581 -1.736462,-2.395855 -3.185204,-2.082266l0,0z" id="svg_5"/>
     <path stroke="null" d="m365.6004,163.517501c8.956472,25.266064 23.609259,40.82222 40.085799,40.82222c12.016658,0 23.134415,-8.275349 31.803984,-22.844728c0.763365,-1.282846 0.352786,-2.947973 -0.917045,-3.719166c-1.269824,-0.771192 -2.918055,-0.356407 -3.681421,0.926446c-7.791326,13.093478 -17.361673,20.217018 -27.205518,20.217018c-13.68666,0 -26.755645,-13.87472 -35.03452,-37.229301c-0.499532,-1.409176 -2.035248,-2.142423 -3.430127,-1.637777c-1.394864,0.504653 -2.120684,2.056112 -1.621152,3.465288l0,0zm81.810814,-4.942332c4.636597,-14.968681 7.126817,-32.236431 7.126817,-50.230444c0,-44.900177 -15.555399,-83.605811 -37.712008,-93.544865c-1.354126,-0.60744 -2.939299,0.009119 -3.540562,1.377141c-0.601277,1.368007 0.009029,2.969428 1.363155,3.576868c19.761019,8.864437 34.523995,45.598332 34.523995,88.590856c0,17.45712 -2.411582,34.179601 -6.881959,48.611654c-0.442484,1.428496 0.345094,2.948912 1.759092,3.395921c1.414006,0.447017 2.918994,-0.348627 3.361463,-1.777131l0,0l0.000007,0z" id="svg_6"/>
     <path stroke="null" d="m497.937006,155.919965c0,-7.163983 -5.748638,-12.97153 -12.83991,-12.97153c-7.091294,0 -12.839932,5.807547 -12.839932,12.97153c0,7.163983 5.748638,12.971545 12.839932,12.971545c7.091272,0 12.83991,-5.807562 12.83991,-12.971545l0,0zm-5.365421,0c0,4.170368 -3.346447,7.551123 -7.47449,7.551123c-4.12805,0 -7.474504,-3.380755 -7.474504,-7.551123c0,-4.170368 3.346454,-7.551108 7.474504,-7.551108c4.128043,0 7.47449,3.38074 7.47449,7.551108l0,0z" id="svg_7"/>
     <path stroke="null" d="m326.090641,168.89151c7.091286,0 12.839925,-5.807562 12.839925,-12.971545c0,-7.163983 -5.748638,-12.97153 -12.839925,-12.97153c-7.091294,0 -12.839918,5.807547 -12.839918,12.97153c0,7.163983 5.748624,12.971545 12.839918,12.971545l0,0zm0,-5.420422c-4.12805,0 -7.47449,-3.380763 -7.47449,-7.551123c0,-4.170368 3.346439,-7.551108 7.47449,-7.551108c4.128043,0 7.474504,3.38074 7.474504,7.551108c0,4.17036 -3.346461,7.551123 -7.474504,7.551123l0,0z" id="svg_8"/>
     <path stroke="null" d="m405.686198,28.031482c7.091294,0 12.839925,-5.807555 12.839925,-12.971537c0,-7.163983 -5.748631,-12.971545 -12.839925,-12.971545c-7.091294,0 -12.83991,5.807562 -12.83991,12.971545c0,7.163983 5.748617,12.971537 12.83991,12.971537l0,0zm0,-5.420422c-4.12805,0 -7.47449,-3.380748 -7.47449,-7.551115c0,-4.17036 3.346439,-7.551123 7.47449,-7.551123c4.12805,0 7.474504,3.380763 7.474504,7.551123c0,4.170368 -3.346454,7.551115 -7.474504,7.551115l0,0z" id="svg_9"/>
     <path stroke="null" d="m407.647409,117.518044c-5.015126,1.09471 -9.956042,-2.125153 -11.041762,-7.191688c-1.08148,-5.066543 2.103594,-10.058088 7.118727,-11.154947c5.015112,-1.09471 9.95602,2.125153 11.041741,7.191696c1.083611,5.066535 -2.103594,10.058081 -7.118706,11.15494z" id="svg_10"/>
    </g>
   </g>
  </g>
  <!-- Generator: Sketch 3.8.3 (29802) - http://www.bohemiancoding.com/sketch -->
  <desc>Created with Sketch.</desc>
  <g stroke="null" id="svg_25" transform="rotate(-0.11890531331300735 100.49732208251993,102.49977111816536) ">
   <g stroke="null" id="svg_18" fill="none" fill-rule="evenodd" transform="matrix(0.43427377904550896,0,0,0.3927517936566183,-21724.21336634157,-2806.509193546567) ">
    <g stroke="null" id="svg_19">
     <polygon stroke="null" id="svg_23" fill="#FB8C00" points="50255.6490047425,7152.450595930219 50475.8638484925,7279.593662336469 50460.8286922425,7533.878818586469 50255.6490047425,7661.021884992719 50049.1021297425,7533.878818586469 50035.4302547425,7279.593662336469 "/>
     <path stroke="null" d="m50255.571578,7660.971964l0.08072,0.0497l205.1794,-127.14281l15.0384,-254.2856l-220.2178,-127.14281l-0.49468,0.28561l0.41396,0l0,508.23591z" id="svg_22" fill="#EF6C00"/>
     <path stroke="null" d="m50255.652298,7206.736054l173.20509,100l-11.82796,200l-161.37713,100l-162.45239,-100l-10.75269,-200l173.20508,-100zm0,19.96605l155.91398,90.01697l-10.75269,180.03396l-145.16129,90.01697l-145.16129,-90.01697l-10.75268,-180.03396l155.91397,-90.01697z" id="svg_21" fill="#FFFFFF"/>
     <path stroke="null" d="m50368.525578,7409.218554c-3.16251,-1.6698 -6.85631,-1.73727 -10.11157,-0.5819l-9.73207,-5.1359l0,-40.7583l9.58027,-5.7684c1.18066,0.36263 2.4035,0.59877 3.6685,0.59877c2.29386,0 4.554,-0.62407 6.51896,-1.81317c2.89264,-1.7457 4.93351,-4.51183 5.75154,-7.78397c0.8096,-3.28056 0.3036,-6.6792 -1.4421,-9.57183c-3.45767,-5.7431 -11.60427,-7.78397 -17.36424,-4.30943c-3.1878,1.9228 -5.17806,5.04313 -5.83586,8.44176l-9.3104,5.60817l-33.73334,-20.23157l0,-11.16573c2.57217,-2.31917 4.21667,-5.63347 4.21667,-9.361c0,-6.97437 -5.67563,-12.65 -12.65,-12.65c-6.97436,0 -12.65,5.67563 -12.65,12.65c0,3.72753 1.6445,7.04183 4.21667,9.361l0,11.16573l-33.73333,20.24l-33.73334,-20.24l0,-11.16573c2.57217,-2.31917 4.21667,-5.63347 4.21667,-9.361c0,-6.97437 -5.67563,-12.65 -12.65,-12.65c-6.97437,0 -12.65,5.67563 -12.65,12.65c0,3.72753 1.6445,7.04183 4.21667,9.361l0,11.16573l-33.7249,20.23157l-9.31041,-5.60817c-0.6578,-3.39863 -2.64806,-6.5274 -5.83586,-8.44176c-5.75997,-3.48297 -13.89814,-1.43367 -17.36423,4.301c-1.75414,2.89263 -2.26014,6.2997 -1.45054,9.58026c0.81804,3.27214 2.8589,6.03827 5.75153,7.78397c1.9734,1.1891 4.2251,1.81317 6.51897,1.81317c1.265,0 2.48783,-0.23614 3.6685,-0.59877l9.58027,5.77683l0,40.74987l-9.72363,5.14433c-3.25527,-1.15536 -6.94907,-1.09633 -10.12,0.5819c-6.16477,3.2637 -8.52611,10.9296 -5.27084,17.09437c2.2011,4.15763 6.48524,6.73823 11.19103,6.73823c2.04931,0 4.08174,-0.506 5.90334,-1.4674c3.289,-1.73726 5.45636,-4.74796 6.2997,-8.096l9.8923,-5.22866l33.99477,20.3918l0,40.74143l-9.72364,5.14433c-3.2637,-1.15536 -6.9575,-1.0879 -10.12,0.5819c-6.16476,3.2637 -8.5261,10.9296 -5.27083,17.09437c2.2011,4.15763 6.48523,6.73823 11.19103,6.73823c2.0493,0 4.08173,-0.506 5.90333,-1.4674c3.28901,-1.73726 5.45637,-4.74796 6.2997,-8.096l9.8923,-5.22866l33.99477,20.3918l0,11.16573c-2.57216,2.31917 -4.21667,5.63347 -4.21667,9.361c0,6.97437 5.67564,12.65 12.65001,12.65c6.97436,0 12.65,-5.67563 12.65,-12.65c0,-3.72753 -1.6445,-7.04183 -4.21667,-9.361l0,-11.16573l33.99476,-20.3918l9.8923,5.22866c0.85177,3.35647 3.01071,6.35874 6.29971,8.10444c1.81316,0.95296 3.85403,1.45896 5.90333,1.45896c4.7058,0 8.98993,-2.5806 11.19103,-6.73823c3.2637,-6.16477 0.89393,-13.8391 -5.27083,-17.09437c-3.1625,-1.67823 -6.8563,-1.73726 -10.11157,-0.5819l-9.73207,-5.14433l0,-40.74143l33.99477,-20.3918l9.8923,5.22866c0.85177,3.35647 3.0107,6.35874 6.2997,8.10444c1.81317,0.95296 3.85403,1.45896 5.90333,1.45896c4.70581,0 8.98994,-2.5806 11.19104,-6.73823c3.2637,-6.16477 0.89393,-13.8391 -5.27083,-17.1028l0,0zm-78.87697,70.4858l-33.73333,20.24l-33.73334,-20.24l0,-41.04503l33.73334,-20.24l33.73333,20.24l0,41.04503l0,0zm42.16667,-75.9l-33.73334,20.24l-33.73333,-20.24l0,-41.04503l33.73333,-20.24l33.73334,20.24l0,41.04503l0,0z" id="svg_20" fill="#FFFFFF"/>
    </g>
   </g>
  </g>
  <text stroke="null" transform="matrix(0.7997183799743652,0,0,0.8730964660644531,43.56125235557556,-2.157360076904297) " fill="#FB8C00" stroke-width="0" x="217.5" y="157.034883" id="svg_26" font-size="171" font-family="Helvetica, Arial, sans-serif" text-anchor="start" xml:space="preserve">+</text>
 </g>
</svg>