<svg-width="446" height="201" viewBox="0 0 446 201" version="1.1" xmlns="http://www.w3.org/2000/svg" xmlns:xlink="http://www.w3.org/1999/xlink">
<title>Covalent</title>
<desc>Copyright 2017 Teradata</desc>
<g-id="Canvas" transform="translate(608 209)">
<g-id="covalent-and-electron">
<g-id="svg-1">
<g-id="svg-2">
<g-id="svg-3">
<g-id="svg-4">
<use xlink:href="#path0_fill" transform="translate(-329.955 -169.62)" fill="#47848F"/>
</g>
<g-id="svg-5">
<use xlink:href="#path1_fill" transform="translate(-329.878 -169.478)" fill="#47848F"/>
</g>
<g-id="svg-6">
<use xlink:href="#path2_fill" transform="translate(-286.828 -197.217)" fill="#47848F"/>
</g>
<g-id="svg-7">
<use xlink:href="#path3_fill" transform="translate(-186.194 -75.976)" fill="#47848F"/>
</g>
<g-id="svg-8">
<use xlink:href="#path4_fill" transform="translate(-336 -75.976)" fill="#47848F"/>
</g>
<g-id="svg-9">
<use xlink:href="#path5_fill" transform="translate(-261.01 -209)" fill="#47848F"/>
</g>
<g-id="svg-10">
<use xlink:href="#path6_fill" transform="translate(-257.667 -117.52)" fill="#47848F"/>
</g>
</g>
</g>
</g>
<g-id="svg-26">
<use xlink:href="#path7_fill" transform="matrix(0.799718 0 0 0.873096 -407 -138)" fill="#EF6C00"/>
</g>
<g-id="covalent">
<g-id="covalent">
<g-id="covalent inner">
<g-id="Group-2">
<g-id="Polygon-1">
<use xlink:href="#path8_fill" transform="translate(-608 -209)" fill="#FB8C00"/>
</g>
<g-id="Combined-Shape">
<use xlink:href="#path9_fill" transform="translate(-520.98 -208.989)" fill="#EF6C00"/>
</g>
</g>
<g-id="Group-3">
<g-id="Combined-Shape">
<use xlink:href="#path10_fill" transform="translate(-593.462 -192.401)" fill="#FFFFFF"/>
</g>
<g-id="Group-3-2">
<g-id="Combined-Shape">
<use xlink:href="#path11_fill" transform="translate(-570.548 -152.878)" fill="#FFFFFF"/>
</g>
<g-id="Rectangle">
<use xlink:href="#path12_fill" transform="matrix(0.706962 0.707251 -0.706962 0.707251 -520.972 -112.57)" fill="#F57C01"/>
</g>
<g-id="Rectangle-2">
<use xlink:href="#path13_fill" transform="matrix(0.706962 0.707251 -0.706962 0.707251 -498.359 -152.302)" fill="#F57C01"/>
</g>
<g-id="Rectangle-3">
<use xlink:href="#path14_fill" transform="matrix(0.706962 0.707251 -0.706962 0.707251 -513.124 -137.53)" fill="#FB8C00"/>
</g>
</g>
</g>
<g-id="Rectangle-4">
<use xlink:href="#path15_fill" transform="matrix(0.706962 0.707251 -0.706962 0.707251 -544.05 -152.483)" fill="#FFF6EA"/>
</g>
<g-id="Rectangle-5">
<use xlink:href="#path16_fill" transform="matrix(0.706962 0.707251 -0.706962 0.707251 -529.383 -137.689)" fill="#FFE3BF"/>
</g>
</g>
</g>
</g>
</g>
</g>
<defs>
<path id="path0_fill" fill-rule="evenodd" d="M 55.3425 1.67236C 30.6943 -2.87365 11.206 1.88437 3.43884 15.5075C -2.35716 25.6734 -0.700394 39.1517 7.45679 53.5592C 8.15108 54.7855 9.6956 55.2096 10.9066 54.5065C 12.1175 53.8035 12.5364 52.2394 11.8421 51.0131C 4.49403 38.0347 3.06419 26.4024 7.81658 18.067C 14.2688 6.75015 31.652 2.50608 54.4367 6.7084C 55.81 6.96169 57.126 6.03966 57.3762 4.649C 57.6263 3.25834 56.7158 1.92565 55.3425 1.67236L 55.3425 1.67236ZM 20.2746 71.0713C 30.241 82.1621 43.1889 92.5646 57.9553 101.198C 93.7099 122.102 131.773 127.689 150.532 114.736C 151.685 113.94 151.983 112.348 151.197 111.18C 150.41 110.012 148.838 109.711 147.684 110.507C 130.895 122.1 94.7379 116.792 60.4828 96.7647C 46.1578 88.3896 33.6199 78.3165 24.0134 67.6262C 23.0739 66.5807 21.4753 66.5044 20.4429 67.4558C 19.4105 68.4071 19.3352 70.0258 20.2746 71.0713L 20.2746 71.0713Z"/>
<path id="path1_fill" fill-rule="evenodd" d="M 144.471 67.8164C 160.61 48.5096 166.245 29.0913 158.494 15.4962C 152.79 5.49269 140.733 0.211244 124.709 0.000220084C 123.314 -0.0181545 122.167 1.11275 122.149 2.52617C 122.131 3.93958 123.248 5.10029 124.644 5.11868C 139.055 5.30846 149.443 9.85854 154.116 18.0557C 160.554 29.348 155.529 46.6648 140.613 64.5091C 139.711 65.588 139.843 67.203 140.909 68.1163C 141.974 69.0296 143.569 68.8953 144.471 67.8164ZM 102.994 2.38333C 88.4013 5.54933 72.8691 11.7395 57.9522 20.4607C 21.0424 42.04 -3.03468 73.8594 0.30922 96.9314C 0.511927 98.33 1.79583 99.2973 3.17692 99.0921C 4.55803 98.8868 5.51332 97.5867 5.31062 96.1881C 2.34159 75.7026 25.1643 45.5409 60.4797 24.8938C 74.9503 16.4335 89.9896 10.4398 104.053 7.38861C 105.418 7.09247 106.287 5.73194 105.995 4.34976C 105.702 2.9676 104.359 2.08718 102.994 2.38333L 102.994 2.38333Z"/>
<path id="path2_fill" fill-rule="evenodd" d="M 0.148675 140.665C 8.58691 164.526 22.3918 179.217 37.915 179.217C 49.2364 179.217 59.7108 171.402 67.8788 157.643C 68.598 156.431 68.2112 154.859 67.0148 154.13C 65.8185 153.402 64.2656 153.794 63.5464 155.005C 56.2059 167.37 47.1893 174.098 37.915 174.098C 25.0203 174.098 12.7075 160.995 4.90767 138.939C 4.43704 137.609 2.9902 136.916 1.67603 137.393C 0.361872 137.869 -0.321953 139.335 0.148675 140.665L 0.148675 140.665ZM 77.2258 135.998C 81.5941 121.862 83.9402 105.555 83.9402 88.5618C 83.9402 46.1594 69.2849 9.60702 48.4103 0.220876C 47.1345 -0.352772 45.6411 0.229489 45.0746 1.52141C 44.5081 2.81331 45.0831 4.32564 46.3589 4.89929C 64.9765 13.2706 78.8852 47.961 78.8852 88.5618C 78.8852 105.048 76.6132 120.84 72.4015 134.469C 71.9846 135.818 72.7266 137.254 74.0588 137.676C 75.391 138.098 76.8089 137.347 77.2258 135.998L 77.2258 135.998Z"/>
<path id="path3_fill" fill-rule="evenodd" d="M 24.194 12.2499C 24.194 5.48447 18.778 5.24291e-06 12.097 5.24291e-06C 5.41602 5.24291e-06 7.18932e-06 5.48447 7.18932e-06 12.2499C 7.18932e-06 19.0154 5.41602 24.4999 12.097 24.4999C 18.778 24.4999 24.194 19.0154 24.194 12.2499ZM 19.139 12.2499C 19.139 16.1883 15.9862 19.381 12.097 19.381C 8.20781 19.381 5.05497 16.1883 5.05497 12.2499C 5.05497 8.31155 8.20781 5.11888 12.097 5.11888C 15.9862 5.11888 19.139 8.31155 19.139 12.2499Z"/>
<path id="path4_fill" fill-rule="evenodd" d="M 12.097 24.4999C 18.7779 24.4999 24.194 19.0154 24.194 12.2499C 24.194 5.48447 18.7779 5.24291e-06 12.097 5.24291e-06C 5.41599 5.24291e-06 8.87671e-06 5.48447 8.87671e-06 12.2499C 8.87671e-06 19.0154 5.41599 24.4999 12.097 24.4999ZM 12.097 19.381C 8.20778 19.381 5.05497 16.1883 5.05497 12.2499C 5.05497 8.31155 8.20778 5.11888 12.097 5.11888C 15.9862 5.11888 19.139 8.31155 19.139 12.2499C 19.139 16.1883 15.9862 19.381 12.097 19.381Z"/>
<path id="path5_fill" fill-rule="evenodd" d="M 12.097 24.4999C 18.7779 24.4999 24.194 19.0154 24.194 12.2499C 24.194 5.48449 18.7779 -1.06634e-07 12.097 -1.06634e-07C 5.41598 -1.06634e-07 -4.74933e-06 5.48449 -4.74933e-06 12.2499C -4.74933e-06 19.0154 5.41598 24.4999 12.097 24.4999ZM 12.097 19.381C 8.20777 19.381 5.05496 16.1883 5.05496 12.2499C 5.05496 8.31157 8.20777 5.11888 12.097 5.11888C 15.9862 5.11888 19.139 8.31157 19.139 12.2499C 19.139 16.1883 15.9862 19.381 12.097 19.381Z"/>
<path id="path6_fill" fill-rule="evenodd" d="M 10.6015 17.5278C 5.87657 18.5616 1.22155 15.5208 0.198654 10.7362C -0.82025 5.95147 2.18052 1.23761 6.90547 0.201765C 11.6304 -0.832046 16.2854 2.2087 17.3083 6.99338C 18.3292 11.7781 15.3264 16.4919 10.6015 17.5278L 10.6015 17.5278Z"/>
<path id="path7_fill" d="M 32.6367 23.4202L 55.0194 23.4202L 55.0194 33.0638L 32.6367 33.0638L 32.6367 58.4128L 22.3826 58.4128L 22.3826 33.0638L 0 33.0638L 0 23.4202L 22.3826 23.4202L 22.3826 0L 32.6367 0L 32.6367 23.4202Z"/>
<path id="path8_fill" fill-rule="evenodd" d="M 87 0L 174 50.25L 168.059 150.75L 87 201L 5.40102 150.75L -8.68971e-25 50.25L 87 0Z"/>
<path id="path9_fill" fill-rule="evenodd" d="M -1.8426e-06 -1.47581e-10L 86.9802 50.2386L 81.0391 150.739L -1.8426e-06 200.976L -1.8426e-06 -1.47581e-10Z"/>
<path id="path10_fill" fill-rule="evenodd" d="M 72.4941 0L 144.988 41.8938L 140.038 125.682L 72.4941 167.575L 4.50049 125.682L -5.48343e-22 41.8938L 72.4941 0ZM 72.4941 8.36454L 7.23711 46.0761L 11.7376 121.499L 72.4941 159.211L 133.251 121.499L 137.751 46.0761L 72.4941 8.36454Z"/>
<path id="path11_fill" fill-rule="evenodd" d="M 22.9137 59.4857L 0 46.2413L 8.75165e-15 15.4138L 26.6668 0L 49.5805 13.2444L 72.4941 0L 99.1609 15.4138L 99.1609 46.2413L 76.2472 59.4857L 76.2472 85.7638L 49.5805 101.178L 22.9137 85.7638L 22.9137 59.4857ZM 30.4199 59.4857L 30.4199 81.1199L 49.5805 92.0874L 68.741 81.1199L 68.741 59.4857L 49.5805 48.4107L 30.4199 59.4857ZM 53.3336 41.8236L 72.0991 52.5649L 91.2597 41.5974L 91.2597 19.6624L 72.0991 8.69495L 53.3336 19.4363L 53.3336 41.8236Z"/>
<path id="path12_fill" fill-rule="evenodd" d="M 5.70987 5.5749L 27.1017 -8.27719e-07L 20.8702 20.9949L 1.34839e-06 27.1017L 5.70987 5.5749Z"/>
<path id="path13_fill" fill-rule="evenodd" d="M 5.67614 5.80393L 26.9713 1.85711e-07L 20.7584 20.8862L 2.84396e-06 26.6685L 5.67614 5.80393Z"/>
<path id="path14_fill" fill-rule="evenodd" d="M 16.0043 21.7867L 36.8125 16.0541L 20.7584 -2.88235e-07L -1.00638e-06 5.78233L 16.0043 21.7867Z"/>
<path id="path15_fill" fill-rule="evenodd" d="M 5.67613 5.80394L 26.9713 2.35813e-06L 20.7584 20.8862L -1.25489e-06 26.6685L 5.67613 5.80394Z"/>
<path id="path16_fill" fill-rule="evenodd" d="M 22.1043 16.0043L 16.0541 37.1301L 2.93194e-06 21.0761L 6.1 2.78607e-07L 22.1043 16.0043Z"/>
</defs>
</svg>
